<svg xmlns="http://www.w3.org/2000/svg" width="18.829" height="17.682" viewBox="0 0 18.829 17.682">
  <g id="Group_2254" data-name="Group 2254" transform="translate(-177.412 -39.142)">
    <g id="Group_2254-2" data-name="Group 2254" transform="translate(177.912 39.642)">
      <line id="Line_500" data-name="Line 500" x2="11.914" transform="translate(1.259 4.248)" fill="none" stroke="#0b264d" stroke-linejoin="round" stroke-width="1"/>
      <path id="Path_2078" data-name="Path 2078" d="M186.8,57.633h-8.053a.839.839,0,0,1-.833-.837V45.334a.836.836,0,0,1,.833-.833h2.292" transform="translate(-177.912 -43.208)" fill="none" stroke="#0b264d" stroke-linejoin="round" stroke-width="1"/>
      <path id="Path_2079" data-name="Path 2079" d="M223.23,44.5h1.535a.835.835,0,0,1,.833.833v5.4" transform="translate(-211.167 -43.208)" fill="none" stroke="#0b264d" stroke-linejoin="round" stroke-width="1"/>
      <line id="Line_501" data-name="Line 501" x2="1.996" transform="translate(8.418 1.293)" fill="none" stroke="#0b264d" stroke-linejoin="round" stroke-width="1"/>
      <line id="Line_502" data-name="Line 502" x2="1.996" transform="translate(4.773 1.293)" fill="none" stroke="#0b264d" stroke-linejoin="round" stroke-width="1"/>
      <line id="Line_503" data-name="Line 503" y2="2.833" transform="translate(3.182 0)" fill="none" stroke="#0b264d" stroke-linecap="round" stroke-miterlimit="10" stroke-width="1"/>
      <line id="Line_504" data-name="Line 504" y2="2.833" transform="translate(10.471 0)" fill="none" stroke="#0b264d" stroke-linecap="round" stroke-miterlimit="10" stroke-width="1"/>
      <line id="Line_505" data-name="Line 505" y2="2.833" transform="translate(6.827 0)" fill="none" stroke="#0b264d" stroke-linecap="round" stroke-miterlimit="10" stroke-width="1"/>
      <line id="Line_506" data-name="Line 506" x2="8.962" transform="translate(2.321 8.014)" fill="none" stroke="#0b264d" stroke-linejoin="round" stroke-width="1"/>
      <line id="Line_507" data-name="Line 507" x2="6.743" transform="translate(2.321 10.741)" fill="none" stroke="#0b264d" stroke-linejoin="round" stroke-width="1"/>
      <line id="Line_508" data-name="Line 508" y1="7.038" transform="translate(7.215 5.859)" fill="none" stroke="#0b264d" stroke-linejoin="round" stroke-width="1"/>
      <line id="Line_509" data-name="Line 509" y1="7.038" transform="translate(4.488 5.859)" fill="none" stroke="#0b264d" stroke-linejoin="round" stroke-width="1"/>
      <line id="Line_510" data-name="Line 510" y1="3.386" transform="translate(9.943 5.859)" fill="none" stroke="#0b264d" stroke-linejoin="round" stroke-width="1"/>
    </g>
    <path id="Path_2081" data-name="Path 2081" stroke="#0b264d" d="M216.675,73.5a3.952,3.952,0,1,1-1.007,1.222" fill="none" transform="translate(-27.367 -24.203)" stroke-linecap="round" stroke-linejoin="round" stroke-width="1" fill-rule="evenodd"/>
    <text id="_28" data-name="28" transform="translate(189.351 53.664)" fill="#0b264d" font-size="4.5" font-family="SegoeUI, Segoe UI"><tspan x="0" y="0">28</tspan></text>
  </g>
</svg>
