<svg xmlns="http://www.w3.org/2000/svg" width="16.279" height="17.531" viewBox="0 0 16.279 17.531">
  <g id="Rx0rzd.tif" transform="translate(-27.269 -3.767)">
    <g id="Group_1118" data-name="Group 1118" transform="translate(27.269 3.767)">
      <path id="Path_1881" data-name="Path 1881" d="M29.481,304.523c-.146-.033-.294-.06-.439-.1a2.428,2.428,0,0,1-1.684-2.991,8.272,8.272,0,0,1,2.695-4.189.872.872,0,0,1,1.253.061.862.862,0,0,1-.12,1.259,6.583,6.583,0,0,0-2.131,3.282.686.686,0,0,0,.7.926q4.051,0,8.1,0a.9.9,0,0,1,.895.522.867.867,0,0,1-.582,1.2c-.033.008-.065.022-.1.033Z" transform="translate(-27.269 -286.992)" fill="#0b264d"/>
      <path id="Path_1882" data-name="Path 1882" d="M366.621,304.365a.976.976,0,0,1-.636-.526.874.874,0,0,1,.767-1.222.7.7,0,0,0,.662-1,6.585,6.585,0,0,0-2.13-3.222.85.85,0,0,1-.307-.877.811.811,0,0,1,.606-.64.894.894,0,0,1,.86.213,8.143,8.143,0,0,1,2.349,3.219,6.671,6.671,0,0,1,.388,1.263,2.4,2.4,0,0,1-1.837,2.724l-.3.069Z" transform="translate(-352.938 -286.833)" fill="#0b264d"/>
      <path id="Path_1883" data-name="Path 1883" d="M119,13.871a5.052,5.052,0,1,1,5.063-4.992A5.047,5.047,0,0,1,119,13.871Zm3.315-5.054a3.314,3.314,0,1,0-3.3,3.319A3.331,3.331,0,0,0,122.315,8.817Z" transform="translate(-110.868 -3.767)" fill="#0b264d"/>
    </g>
  </g>
</svg>
