<svg id="Group_1120" data-name="Group 1120" xmlns="http://www.w3.org/2000/svg" width="20.143" height="20.143" viewBox="0 0 20.143 20.143">
  <path id="Path_1889" data-name="Path 1889" d="M138.037,450.518A3.152,3.152,0,0,0,141.12,448h-6.167A3.153,3.153,0,0,0,138.037,450.518Z" transform="translate(-129.644 -430.375)" fill="#0b264d"/>
  <path id="Path_1890" data-name="Path 1890" d="M14.751,12.166c-.022,0-.042,0-.064,0A6.7,6.7,0,0,1,9.232,1.556V.839a.839.839,0,0,0-1.679,0v.907A5.879,5.879,0,0,0,2.518,7.554v2.34a5.627,5.627,0,0,1-2,4.308,1.469,1.469,0,0,0,.955,2.584H15.317a1.468,1.468,0,0,0,.947-2.591A5.631,5.631,0,0,1,14.751,12.166Z" fill="#0b264d"/>
  <path id="Path_1891" data-name="Path 1891" d="M240.123,0a5.455,5.455,0,1,0,5.455,5.455A5.462,5.462,0,0,0,240.123,0Zm1.049,6.714a.629.629,0,0,1,0,1.259h-2.1a.63.63,0,0,1-.629-.629v-.73a1.79,1.79,0,0,1,1.788-1.788.315.315,0,0,0,0-.629h-1.158a.629.629,0,0,1,0-1.259h1.158a1.574,1.574,0,0,1,0,3.147.53.53,0,0,0-.529.529v.1Z" transform="translate(-225.436)" fill="#66baa0"/>
</svg>
