<svg xmlns="http://www.w3.org/2000/svg" width="21.689" height="29.32" viewBox="0 0 21.689 29.32">
  <g id="Group_2639" data-name="Group 2639" transform="translate(-49.278 -481.084)">
    <path id="Path_2091" data-name="Path 2091" d="M66.684,487.185h4.9v-3.043H69.225a2.351,2.351,0,0,0-4.7,0H62.167v3.043h2.421" transform="translate(-6.753)" fill="none" stroke="#0b264d" stroke-miterlimit="10" stroke-width="1.5"/>
    <path id="Path_2092" data-name="Path 2092" d="M62.994,506.354v2.128H57.078v-5.917h3.814" transform="translate(-3.922 -11.532)" fill="none" stroke="#0b264d" stroke-linecap="round" stroke-linejoin="round" stroke-width="1.5"/>
    <path id="Path_2093" data-name="Path 2093" d="M61.32,503.866,62.9,505.6l3.428-4.43" transform="translate(-6.282 -10.757)" fill="none" stroke="#0b264d" stroke-linecap="round" stroke-linejoin="round" stroke-width="1.5"/>
    <line id="Line_525" data-name="Line 525" x2="5.709" transform="translate(62.091 492.666)" fill="none" stroke="#0b264d" stroke-miterlimit="10" stroke-width="1.5"/>
    <line id="Line_526" data-name="Line 526" x2="3.675" transform="translate(62.091 495.315)" fill="none" stroke="#0b264d" stroke-miterlimit="10" stroke-width="1.5"/>
    <path id="Path_2094" data-name="Path 2094" d="M62.994,527.992v2.128H57.078V524.2h3.814" transform="translate(-3.922 -23.569)" fill="none" stroke="#0b264d" stroke-linecap="round" stroke-linejoin="round" stroke-width="1.5"/>
    <path id="Path_2095" data-name="Path 2095" d="M61.32,525.5l1.578,1.735,3.428-4.43" transform="translate(-6.282 -22.794)" fill="none" stroke="#0b264d" stroke-linecap="round" stroke-linejoin="round" stroke-width="1.5"/>
    <line id="Line_527" data-name="Line 527" x2="5.709" transform="translate(62.091 502.268)" fill="none" stroke="#0b264d" stroke-miterlimit="10" stroke-width="1.5"/>
    <line id="Line_528" data-name="Line 528" x2="3.675" transform="translate(62.091 504.916)" fill="none" stroke="#0b264d" stroke-miterlimit="10" stroke-width="1.5"/>
    <path id="Path_2096" data-name="Path 2096" d="M53.459,490.282H50.028v24.071H70.217V490.282H66.84" transform="translate(0 -4.699)" fill="none" stroke="#0b264d" stroke-linejoin="round" stroke-width="1.5"/>
  </g>
</svg>
