<svg xmlns="http://www.w3.org/2000/svg" width="22.067" height="22.635" viewBox="0 0 22.067 22.635">
  <g id="Group_2697" data-name="Group 2697" transform="translate(-177.705 -487.406)">
    <g id="Group_2263" data-name="Group 2263" transform="translate(178.455 490.231)">
      <path id="Path_2089" data-name="Path 2089" d="M189.569,507.99h5.637a1.732,1.732,0,0,0,1.727-1.727V495.752a1.732,1.732,0,0,0-1.727-1.727H180.181a1.731,1.731,0,0,0-1.726,1.727v10.512a1.731,1.731,0,0,0,1.726,1.727h2.4v5.095l4.576-5.095" transform="translate(-178.455 -494.025)" fill="none" stroke="#0b264d" stroke-linecap="round" stroke-linejoin="round" stroke-width="1.5"/>
    </g>
    <path id="Path_2090" data-name="Path 2090" d="M187.593,488.156H203.2a1.732,1.732,0,0,1,1.727,1.727v10.512a1.732,1.732,0,0,1-1.727,1.727h-.241" transform="translate(-5.907)" fill="none" stroke="#0b264d" stroke-linecap="round" stroke-linejoin="round" stroke-width="1.5"/>
  </g>
</svg>
