<svg xmlns="http://www.w3.org/2000/svg" width="19.5" height="19.493" viewBox="0 0 19.5 19.493">
  <g id="Group_2683" data-name="Group 2683" transform="translate(-177.162 -38.892)">
    <g id="Group_2274" data-name="Group 2274" transform="translate(177.912 39.642)">
      <line id="Line_534" data-name="Line 534" x2="14.86" transform="translate(1.57 5.299)" fill="none" stroke="#aab5c6" stroke-linejoin="round" stroke-width="1.5"/>
      <path id="Path_2103" data-name="Path 2103" d="M189,60.881H178.951a1.047,1.047,0,0,1-1.039-1.044V45.54a1.042,1.042,0,0,1,1.039-1.039h2.859" transform="translate(-177.912 -42.888)" fill="none" stroke="#aab5c6" stroke-linejoin="round" stroke-width="1.5"/>
      <path id="Path_2104" data-name="Path 2104" d="M223.23,44.5h1.914a1.042,1.042,0,0,1,1.039,1.039v6.733" transform="translate(-208.183 -42.888)" fill="none" stroke="#aab5c6" stroke-linejoin="round" stroke-width="1.5"/>
      <path id="Path_2105" data-name="Path 2105" d="M205.019,68.7h7.961a1.042,1.042,0,0,0,1.039-1.039V56.2" transform="translate(-196.019 -50.705)" fill="none" stroke="#aab5c6" stroke-linejoin="round" stroke-width="1.5"/>
      <line id="Line_535" data-name="Line 535" x2="2.49" transform="translate(10.5 1.613)" fill="none" stroke="#aab5c6" stroke-linejoin="round" stroke-width="1.5"/>
      <line id="Line_536" data-name="Line 536" x2="2.49" transform="translate(5.954 1.613)" fill="none" stroke="#aab5c6" stroke-linejoin="round" stroke-width="1.5"/>
      <line id="Line_537" data-name="Line 537" y2="3.534" transform="translate(3.969 0)" fill="none" stroke="#aab5c6" stroke-linecap="round" stroke-miterlimit="10" stroke-width="1.5"/>
      <line id="Line_538" data-name="Line 538" y2="3.534" transform="translate(13.061 0)" fill="none" stroke="#aab5c6" stroke-linecap="round" stroke-miterlimit="10" stroke-width="1.5"/>
      <line id="Line_539" data-name="Line 539" y2="3.534" transform="translate(8.515 0)" fill="none" stroke="#aab5c6" stroke-linecap="round" stroke-miterlimit="10" stroke-width="1.5"/>
      <line id="Line_540" data-name="Line 540" x2="12.152" transform="translate(2.895 9.995)" fill="none" stroke="#aab5c6" stroke-linejoin="round" stroke-width="1.5"/>
      <line id="Line_541" data-name="Line 541" x2="12.152" transform="translate(2.895 13.398)" fill="none" stroke="#aab5c6" stroke-linejoin="round" stroke-width="1.5"/>
      <line id="Line_542" data-name="Line 542" y1="8.778" transform="translate(9 7.307)" fill="none" stroke="#aab5c6" stroke-linejoin="round" stroke-width="1.5"/>
      <line id="Line_543" data-name="Line 543" y1="8.778" transform="translate(5.597 7.307)" fill="none" stroke="#aab5c6" stroke-linejoin="round" stroke-width="1.5"/>
      <line id="Line_544" data-name="Line 544" y1="8.778" transform="translate(12.402 7.307)" fill="none" stroke="#aab5c6" stroke-linejoin="round" stroke-width="1.5"/>
    </g>
  </g>
</svg>
