<svg xmlns="http://www.w3.org/2000/svg" width="21.508" height="21.5" viewBox="0 0 21.508 21.5">
  <g id="Group_2531" data-name="Group 2531" transform="translate(-177.162 -38.892)">
    <g id="Group_2274" data-name="Group 2274" transform="translate(177.912 39.642)">
      <line id="Line_534" data-name="Line 534" x2="16.518" transform="translate(1.745 5.89)" fill="none" stroke="#ddd" stroke-linejoin="round" stroke-width="1.5"/>
      <path id="Path_2103" data-name="Path 2103" d="M190.232,62.708H179.067a1.164,1.164,0,0,1-1.155-1.161V45.655a1.159,1.159,0,0,1,1.155-1.154h3.178" transform="translate(-177.912 -42.708)" fill="none" stroke="#ddd" stroke-linejoin="round" stroke-width="1.5"/>
      <path id="Path_2104" data-name="Path 2104" d="M223.23,44.5h2.128a1.158,1.158,0,0,1,1.155,1.154v7.484" transform="translate(-206.505 -42.708)" fill="none" stroke="#ddd" stroke-linejoin="round" stroke-width="1.5"/>
      <path id="Path_2105" data-name="Path 2105" d="M205.019,70.092h8.849a1.158,1.158,0,0,0,1.155-1.154V56.2" transform="translate(-195.015 -50.092)" fill="none" stroke="#ddd" stroke-linejoin="round" stroke-width="1.5"/>
      <line id="Line_535" data-name="Line 535" x2="2.768" transform="translate(11.671 1.793)" fill="none" stroke="#ddd" stroke-linejoin="round" stroke-width="1.5"/>
      <line id="Line_536" data-name="Line 536" x2="2.767" transform="translate(6.618 1.793)" fill="none" stroke="#ddd" stroke-linejoin="round" stroke-width="1.5"/>
      <line id="Line_537" data-name="Line 537" y2="3.928" transform="translate(4.412 0)" fill="none" stroke="#ddd" stroke-linecap="round" stroke-miterlimit="10" stroke-width="1.5"/>
      <line id="Line_538" data-name="Line 538" y2="3.928" transform="translate(14.518 0)" fill="none" stroke="#ddd" stroke-linecap="round" stroke-miterlimit="10" stroke-width="1.5"/>
      <line id="Line_539" data-name="Line 539" y2="3.928" transform="translate(9.465 0)" fill="none" stroke="#ddd" stroke-linecap="round" stroke-miterlimit="10" stroke-width="1.5"/>
      <line id="Line_540" data-name="Line 540" x2="13.507" transform="translate(3.218 11.11)" fill="none" stroke="#ddd" stroke-linejoin="round" stroke-width="1.5"/>
      <line id="Line_541" data-name="Line 541" x2="13.507" transform="translate(3.218 14.892)" fill="none" stroke="#ddd" stroke-linejoin="round" stroke-width="1.5"/>
      <line id="Line_542" data-name="Line 542" y1="9.757" transform="translate(10.004 8.123)" fill="none" stroke="#ddd" stroke-linejoin="round" stroke-width="1.5"/>
      <line id="Line_543" data-name="Line 543" y1="9.757" transform="translate(6.222 8.123)" fill="none" stroke="#ddd" stroke-linejoin="round" stroke-width="1.5"/>
      <line id="Line_544" data-name="Line 544" y1="9.757" transform="translate(13.785 8.123)" fill="none" stroke="#ddd" stroke-linejoin="round" stroke-width="1.5"/>
    </g>
  </g>
</svg>
