<svg id="Group_1117" data-name="Group 1117" xmlns="http://www.w3.org/2000/svg" width="20" height="20" viewBox="0 0 20 20">
  <path id="Path_1877" data-name="Path 1877" d="M7.516,0H1.422A1.423,1.423,0,0,0,0,1.422V5.078A1.423,1.423,0,0,0,1.422,6.5H7.516A1.423,1.423,0,0,0,8.938,5.078V1.422A1.423,1.423,0,0,0,7.516,0Z" fill="#eff0f1"/>
  <path id="Path_1878" data-name="Path 1878" d="M7.516,213.332H1.422A1.423,1.423,0,0,0,0,214.754v8.531a1.423,1.423,0,0,0,1.422,1.422H7.516a1.423,1.423,0,0,0,1.422-1.422v-8.531A1.423,1.423,0,0,0,7.516,213.332Z" transform="translate(0 -204.707)" fill="#eff0f1"/>
  <g id="Path_1879" data-name="Path 1879" transform="translate(-266.27 -327.832)" fill="none">
    <path d="M284.848,341.332h-6.094a1.423,1.423,0,0,0-1.422,1.422v3.656a1.423,1.423,0,0,0,1.422,1.422h6.094a1.423,1.423,0,0,0,1.422-1.422v-3.656A1.423,1.423,0,0,0,284.848,341.332Z" stroke="none"/>
    <path d="M 278.7539672851563 342.3320007324219 C 278.5213012695313 342.3320007324219 278.3320007324219 342.5213012695313 278.3320007324219 342.7539672851563 L 278.3320007324219 346.4102172851563 C 278.3320007324219 346.642822265625 278.5213012695313 346.83203125 278.7539672851563 346.83203125 L 284.8477172851563 346.83203125 C 285.080322265625 346.83203125 285.26953125 346.642822265625 285.26953125 346.4102172851563 L 285.26953125 342.7539672851563 C 285.26953125 342.5213012695313 285.080322265625 342.3320007324219 284.8477172851563 342.3320007324219 L 278.7539672851563 342.3320007324219 M 278.7539672851563 341.3320007324219 L 284.8477172851563 341.3320007324219 C 285.6317749023438 341.3320007324219 286.26953125 341.9697875976563 286.26953125 342.7539672851563 L 286.26953125 346.4102172851563 C 286.26953125 347.1942443847656 285.6317749023438 347.83203125 284.8477172851563 347.83203125 L 278.7539672851563 347.83203125 C 277.9697875976563 347.83203125 277.3320007324219 347.1942443847656 277.3320007324219 346.4102172851563 L 277.3320007324219 342.7539672851563 C 277.3320007324219 341.9697875976563 277.9697875976563 341.3320007324219 278.7539672851563 341.3320007324219 Z" stroke="none" fill="#eff0f1"/>
  </g>
  <path id="Path_1880" data-name="Path 1880" d="M284.848,0h-6.094a1.423,1.423,0,0,0-1.422,1.422V9.953a1.423,1.423,0,0,0,1.422,1.422h6.094a1.423,1.423,0,0,0,1.422-1.422V1.422A1.423,1.423,0,0,0,284.848,0Z" transform="translate(-266.27)" fill="#eff0f1"/>
</svg>
