<svg xmlns="http://www.w3.org/2000/svg" width="18.572" height="20" viewBox="0 0 18.572 20">
  <g id="Rx0rzd.tif" transform="translate(-27.269 -3.767)">
    <g id="Group_1118" data-name="Group 1118" transform="translate(27.269 3.767)">
      <path id="Path_1881" data-name="Path 1881" d="M29.793,305.582c-.167-.038-.336-.069-.5-.115a2.77,2.77,0,0,1-1.921-3.412,9.437,9.437,0,0,1,3.074-4.779,1,1,0,0,1,1.429.069.983.983,0,0,1-.137,1.436,7.51,7.51,0,0,0-2.432,3.744.782.782,0,0,0,.8,1.056q4.622,0,9.244,0a1.021,1.021,0,0,1,1.021.6.989.989,0,0,1-.663,1.369c-.038.01-.074.025-.112.038Z" transform="translate(-27.269 -285.582)" fill="#eff0f1"/>
      <path id="Path_1882" data-name="Path 1882" d="M366.856,305.424a1.113,1.113,0,0,1-.725-.6,1,1,0,0,1,.875-1.394.793.793,0,0,0,.755-1.142,7.512,7.512,0,0,0-2.429-3.675.97.97,0,0,1-.35-1,.925.925,0,0,1,.691-.73,1.02,1.02,0,0,1,.981.243,9.29,9.29,0,0,1,2.68,3.672,7.612,7.612,0,0,1,.443,1.441,2.742,2.742,0,0,1-2.1,3.107l-.345.078Z" transform="translate(-351.246 -285.424)" fill="#eff0f1"/>
      <path id="Path_1883" data-name="Path 1883" d="M119.71,15.294a5.763,5.763,0,1,1,5.776-5.7A5.758,5.758,0,0,1,119.71,15.294Zm3.782-5.766a3.78,3.78,0,1,0-3.762,3.786A3.8,3.8,0,0,0,123.492,9.528Z" transform="translate(-110.434 -3.767)" fill="#eff0f1"/>
    </g>
  </g>
</svg>
