<svg xmlns="http://www.w3.org/2000/svg" width="27.034" height="23.98" viewBox="0 0 27.034 23.98">
  <g id="Group_2678" data-name="Group 2678" transform="translate(0.75 0.75)">
    <g id="Group_2267" data-name="Group 2267" transform="translate(11.96 4.794)">
      <line id="Line_531" data-name="Line 531" x1="1.078" y2="1.078" transform="translate(0 13.065)" fill="none" stroke="#0b264d" stroke-linecap="round" stroke-miterlimit="10" stroke-width="1.5"/>
      <g id="Group_2266" data-name="Group 2266" transform="translate(2.138 0.618)">
        <path id="Path_2097" data-name="Path 2097" d="M214.483,511.085a23.3,23.3,0,0,1,9.738-9.225,1.161,1.161,0,0,1,1.185.248l.15.151a1.159,1.159,0,0,1,.25,1.183,23.481,23.481,0,0,1-9.228,9.738Z" transform="translate(-214.483 -501.788)" fill="none" stroke="#0b264d" stroke-linejoin="round" stroke-width="1.5"/>
      </g>
      <path id="Path_2098" data-name="Path 2098" d="M211.449,528.648l-.383,1.219.8.8,2.594-1.325" transform="translate(-210.293 -517.305)" fill="none" stroke="#0b264d" stroke-linejoin="round" stroke-width="1.5"/>
      <line id="Line_532" data-name="Line 532" x1="1.31" y1="1.481" transform="translate(8.981)" fill="none" stroke="#0b264d" stroke-linecap="round" stroke-linejoin="round" stroke-width="1.5"/>
      <path id="Path_2099" data-name="Path 2099" d="M220.719,503.728a26.488,26.488,0,0,1,4.337-3.448" transform="translate(-216.091 -500.264)" fill="none" stroke="#0b264d" stroke-linecap="round" stroke-linejoin="round" stroke-width="1.5"/>
      <line id="Line_533" data-name="Line 533" x2="1.981" y2="1.981" transform="translate(8.492 4.788)" fill="none" stroke="#0b264d" stroke-linejoin="round" stroke-width="1.5"/>
    </g>
    <g id="Group_2269" data-name="Group 2269">
      <g id="Group_2268" data-name="Group 2268">
        <path id="Path_2101" data-name="Path 2101" d="M196.089,507.213v3.5H179.176V492.7l4.463-4.462h12.45v5.011" transform="translate(-179.176 -488.233)" fill="none" stroke="#0b264d" stroke-linejoin="round" stroke-width="1.5"/>
      </g>
    </g>
  </g>
</svg>
