<svg xmlns="http://www.w3.org/2000/svg" width="21.481" height="21.072" viewBox="0 0 21.481 21.072">
  <g id="Group_2279" data-name="Group 2279" transform="translate(-177.45 -264.623)">
    <path id="Path_2108" data-name="Path 2108" d="M187.765,285.91a8.718,8.718,0,0,0,5.528,2.1c.052,0,.1,0,.156,0a8.749,8.749,0,0,0,8.749-8.749h-8.9v-9.512" transform="translate(-6.247 -3.064)" fill="none" stroke="#eff0f1" stroke-miterlimit="10" stroke-width="1.5"/>
    <path id="Path_2109" data-name="Path 2109" d="M186.613,271.307a8.717,8.717,0,0,0-5.564,2c-.04.033-.083.063-.121.1a8.877,8.877,0,0,0,.59,13.32" transform="translate(0 -3.876)" fill="none" stroke="#eff0f1" stroke-miterlimit="10" stroke-width="1.5"/>
    <path id="Path_2110" data-name="Path 2110" d="M212.037,264.629l.02,8.838H220.3a8.093,8.093,0,0,0-8.093-8.094" transform="translate(-22.114)" fill="none" stroke="#eff0f1" stroke-miterlimit="10" stroke-width="1.5"/>
    <path id="Path_2111" data-name="Path 2111" d="M181.186,302.123" transform="translate(-1.95 -24.003)" fill="none" stroke="#eff0f1" stroke-miterlimit="10" stroke-width="1.5"/>
    <path id="Path_2112" data-name="Path 2112" d="M196.349,302.447" transform="translate(-11.854 -24.215)" fill="none" stroke="#eff0f1" stroke-miterlimit="10" stroke-width="1.5"/>
  </g>
</svg>
