<svg xmlns="http://www.w3.org/2000/svg" width="20.438" height="20.437" viewBox="0 0 20.438 20.437">
  <g id="Group_2624" data-name="Group 2624" transform="translate(-204.052 -173.688)">
    <g id="Group_2277" data-name="Group 2277" transform="translate(204.802 174.438)">
      <g id="Group_2276" data-name="Group 2276">
        <path id="Path_2106" data-name="Path 2106" d="M212.5,176.975a7.144,7.144,0,0,0-1.869.773l-2.1-1.491-1.911,1.91,1.491,2.1a7.105,7.105,0,0,0-.769,1.855l-2.541.432v2.7l2.541.433a7.1,7.1,0,0,0,.777,1.868l-1.5,2.09,1.911,1.91,2.089-1.5a7.014,7.014,0,0,0,1.867.774l.433,2.543h2.7l.433-2.541a7.111,7.111,0,0,0,1.868-.776l2.089,1.5,1.91-1.91-1.5-2.09a7.085,7.085,0,0,0,.78-1.883l2.537-.417v-2.7l-2.537-.417a7.06,7.06,0,0,0-.771-1.87l1.491-2.1-1.91-1.91-2.1,1.491a7.11,7.11,0,0,0-1.87-.772l-.417-2.537h-2.7" transform="translate(-204.802 -174.438)" fill="none" stroke="#eff0f1" stroke-linecap="round" stroke-linejoin="round" stroke-width="1.5"/>
      </g>
    </g>
    <path id="Path_2107" data-name="Path 2107" d="M218.573,186.25a2.759,2.759,0,1,1-1.946,1.914" transform="translate(-5.018 -5.017)" fill="none" stroke="#eff0f1" stroke-linecap="round" stroke-linejoin="round" stroke-width="1.5"/>
  </g>
</svg>
