<svg xmlns="http://www.w3.org/2000/svg" width="20.291" height="13.642" viewBox="0 0 20.291 13.642">
  <g id="Group_2709" data-name="Group 2709" transform="translate(-305.064 -268.052)">
    <g id="Group_2706" data-name="Group 2706" transform="translate(305.564 268.552)">
      <path id="Path_2384" data-name="Path 2384" d="M315.409,279.63H306.4a.837.837,0,0,1-.834-.834v-9.409a.837.837,0,0,1,.834-.834h13.585a.837.837,0,0,1,.834.834v1.878" transform="translate(-305.564 -268.552)" fill="none" stroke="#0b264d" stroke-linecap="round" stroke-linejoin="round" stroke-width="1"/>
      <line id="Line_707" data-name="Line 707" x1="3.446" y2="4.124" transform="translate(0.482 6.54)" fill="none" stroke="#0b264d" stroke-linecap="round" stroke-linejoin="round" stroke-width="1"/>
      <path id="Path_2385" data-name="Path 2385" d="M306.553,269.439l7.352,5.675,7.291-5.722" transform="translate(-306.256 -269.14)" fill="none" stroke="#0b264d" stroke-linecap="round" stroke-linejoin="round" stroke-width="1"/>
    </g>
    <path id="Path_2386" data-name="Path 2386" d="M350.581,287.335a4.117,4.117,0,1,1-4.118-4.117A4.117,4.117,0,0,1,350.581,287.335Z" transform="translate(-25.727 -10.258)" fill="none" stroke="#0b264d" stroke-miterlimit="10" stroke-width="1"/>
    <g id="Group_2707" data-name="Group 2707" transform="translate(319.816 275.494)">
      <path id="Path_2387" data-name="Path 2387" d="M352.979,292.573l1.112-.926v3.214" transform="translate(-352.979 -291.647)" fill="none" stroke="#0b264d" stroke-linecap="round" stroke-linejoin="round" stroke-width="1"/>
    </g>
  </g>
</svg>
