<svg xmlns="http://www.w3.org/2000/svg" width="13.202" height="14.217" viewBox="0 0 13.202 14.217">
  <g id="Rx0rzd.tif" transform="translate(-27.269 -3.767)">
    <g id="Group_1118" data-name="Group 1118" transform="translate(27.269 3.767)">
      <path id="Path_1881" data-name="Path 1881" d="M29.063,303.1c-.119-.027-.239-.049-.356-.082a1.969,1.969,0,0,1-1.366-2.426,6.709,6.709,0,0,1,2.185-3.4.707.707,0,0,1,1.016.049.7.7,0,0,1-.1,1.021,5.338,5.338,0,0,0-1.729,2.661.556.556,0,0,0,.57.751h6.571a.726.726,0,0,1,.725.423.7.7,0,0,1-.472.973c-.027.007-.053.018-.079.027Z" transform="translate(-27.269 -288.885)" fill="#0b264d"/>
      <path id="Path_1882" data-name="Path 1882" d="M366.306,302.943a.791.791,0,0,1-.516-.426.709.709,0,0,1,.622-.991.564.564,0,0,0,.537-.812,5.34,5.34,0,0,0-1.727-2.613.69.69,0,0,1-.249-.711.658.658,0,0,1,.492-.519.725.725,0,0,1,.7.173,6.6,6.6,0,0,1,1.905,2.61,5.411,5.411,0,0,1,.315,1.025,1.949,1.949,0,0,1-1.489,2.209l-.245.056Z" transform="translate(-355.209 -288.725)" fill="#0b264d"/>
      <path id="Path_1883" data-name="Path 1883" d="M118.046,11.961a4.1,4.1,0,1,1,4.106-4.049A4.093,4.093,0,0,1,118.046,11.961Zm2.688-4.1a2.687,2.687,0,1,0-2.674,2.692A2.7,2.7,0,0,0,120.734,7.862Z" transform="translate(-111.451 -3.767)" fill="#0b264d"/>
    </g>
  </g>
</svg>
