<svg xmlns="http://www.w3.org/2000/svg" width="25.616" height="27.587" viewBox="0 0 25.616 27.587">
  <g id="Rx0rzd.tif" transform="translate(-27.269 -3.767)">
    <g id="Group_1118" data-name="Group 1118" transform="translate(27.269 3.767)">
      <path id="Path_1881" data-name="Path 1881" d="M30.75,308.835c-.23-.052-.463-.095-.69-.159a3.821,3.821,0,0,1-2.65-4.707,13.017,13.017,0,0,1,4.24-6.591,1.372,1.372,0,0,1,1.972.1,1.356,1.356,0,0,1-.189,1.981,10.358,10.358,0,0,0-3.354,5.164,1.079,1.079,0,0,0,1.106,1.456q6.375,0,12.75,0a1.408,1.408,0,0,1,1.408.821,1.364,1.364,0,0,1-.915,1.888c-.052.013-.1.035-.154.053Z" transform="translate(-27.269 -281.248)" fill="#394553"/>
      <path id="Path_1882" data-name="Path 1882" d="M367.577,308.679a1.536,1.536,0,0,1-1-.827,1.376,1.376,0,0,1,1.207-1.923,1.093,1.093,0,0,0,1.041-1.575,10.361,10.361,0,0,0-3.351-5.069,1.338,1.338,0,0,1-.483-1.38,1.276,1.276,0,0,1,.954-1.007,1.406,1.406,0,0,1,1.353.335,12.815,12.815,0,0,1,3.7,5.065,10.5,10.5,0,0,1,.611,1.988,3.782,3.782,0,0,1-2.89,4.286c-.159.035-.318.072-.476.108Z" transform="translate(-346.046 -281.093)" fill="#394553"/>
      <path id="Path_1883" data-name="Path 1883" d="M121.894,19.666a7.95,7.95,0,1,1,7.967-7.856A7.942,7.942,0,0,1,121.894,19.666Zm5.216-7.953a5.214,5.214,0,1,0-5.189,5.223A5.241,5.241,0,0,0,127.111,11.713Z" transform="translate(-109.099 -3.767)" fill="#394553"/>
    </g>
  </g>
</svg>
