<svg xmlns="http://www.w3.org/2000/svg" width="41.964" height="30.646" viewBox="0 0 41.964 30.646">
  <g id="Group_2560" data-name="Group 2560" transform="translate(-44.029 -380.799)">
    <path id="Path_2113" data-name="Path 2113" d="M49.185,393.239V386.36a4.323,4.323,0,0,1,4.31-4.311h26.07a4.324,4.324,0,0,1,4.311,4.311v6.879" transform="translate(-1.519 0)" fill="none" stroke="#394553" stroke-miterlimit="10" stroke-width="2.5"/>
    <path id="Path_2114" data-name="Path 2114" d="M45.279,420.432v-12.2a3.089,3.089,0,0,1,3.079-3.079H81.664a3.088,3.088,0,0,1,3.079,3.079v12.2" transform="translate(0 -8.987)" fill="none" stroke="#394553" stroke-miterlimit="10" stroke-width="2.5"/>
    <g id="Group_2281" data-name="Group 2281" transform="translate(53.063 386.752)">
      <path id="Path_2115" data-name="Path 2115" d="M58.017,396.233v-4.64a1.853,1.853,0,0,1,1.847-1.847h5.748a1.853,1.853,0,0,1,1.847,1.847v4.64" transform="translate(-58.017 -389.746)" fill="none" stroke="#394553" stroke-miterlimit="10" stroke-width="2.5"/>
      <path id="Path_2116" data-name="Path 2116" d="M81.671,396.233v-4.64a1.853,1.853,0,0,1,1.848-1.847h5.748a1.853,1.853,0,0,1,1.847,1.847v4.64" transform="translate(-67.217 -389.746)" fill="none" stroke="#394553" stroke-miterlimit="10" stroke-width="2.5"/>
    </g>
    <line id="Line_548" data-name="Line 548" x2="39.028" transform="translate(45.497 406.417)" fill="none" stroke="#394553" stroke-miterlimit="10" stroke-width="2.5"/>
  </g>
</svg>
