<svg xmlns="http://www.w3.org/2000/svg" width="33.195" height="36.677" viewBox="0 0 33.195 36.677">
  <g id="Group_2317" data-name="Group 2317" transform="translate(-52.745 -488.328)">
    <path id="Path_2117" data-name="Path 2117" d="M68.5,501.48c-6.982,0-12.642,4.1-12.642,9.165H81.143C81.143,505.584,75.483,501.48,68.5,501.48Z" transform="translate(-0.651 -4.154)" fill="none" stroke="#394553" stroke-linecap="round" stroke-linejoin="round" stroke-width="2.5"/>
    <line id="Line_549" data-name="Line 549" x2="27.711" transform="translate(53.995 510.201)" fill="none" stroke="#394553" stroke-linecap="round" stroke-miterlimit="10" stroke-width="2.5"/>
    <path id="Path_2118" data-name="Path 2118" d="M92.109,489.578H78.877a3.635,3.635,0,0,0-3.625,3.625v4" transform="translate(-7.419 0)" fill="none" stroke="#394553" stroke-linecap="round" stroke-miterlimit="10" stroke-width="2.5"/>
    <g id="Group_2298" data-name="Group 2298" transform="translate(58.609 514.927)">
      <g id="Group_2291" data-name="Group 2291">
        <g id="Group_2290" data-name="Group 2290">
          <g id="Path_2119" data-name="Path 2119" transform="translate(-61.083 -528.517)" fill="#394553" stroke-miterlimit="10">
            <path d="M 61.59012603759766 529.7669677734375 C 61.18049621582031 529.7669677734375 60.84723281860352 529.4339599609375 60.84723281860352 529.024658203125 C 60.84723281860352 528.6150512695313 61.18049621582031 528.2818603515625 61.59012603759766 528.2818603515625 C 61.9997444152832 528.2818603515625 62.3329963684082 528.6150512695313 62.3329963684082 529.024658203125 C 62.3329963684082 529.4339599609375 61.9997444152832 529.7669677734375 61.59012603759766 529.7669677734375 Z" stroke="none"/>
            <path d="M 61.59012603759766 529.5318603515625 C 61.31084442138672 529.5318603515625 61.0829963684082 529.305419921875 61.0829963684082 529.024658203125 C 61.0829963684082 528.7435302734375 61.31084442138672 528.5169677734375 61.59012603759766 528.5169677734375 C 61.87133407592773 528.5169677734375 62.09723281860352 528.7435302734375 62.09723281860352 529.024658203125 C 62.09723281860352 529.305419921875 61.87133407592773 529.5318603515625 61.59012603759766 529.5318603515625 Z" stroke="none" fill="#394553"/>
          </g>
        </g>
      </g>
      <g id="Group_2293" data-name="Group 2293" transform="translate(5.823)">
        <g id="Group_2292" data-name="Group 2292">
          <g id="Path_2120" data-name="Path 2120" transform="translate(-70.028 -528.517)" fill="#394553" stroke-miterlimit="10">
            <path d="M 70.53511810302734 529.7669677734375 C 70.12548065185547 529.7669677734375 69.79222106933594 529.4339599609375 69.79222106933594 529.024658203125 C 69.79222106933594 528.6150512695313 70.12548065185547 528.2818603515625 70.53511810302734 528.2818603515625 C 70.94474792480469 528.2818603515625 71.27799987792969 528.6150512695313 71.27799987792969 529.024658203125 C 71.27799987792969 529.4339599609375 70.94474792480469 529.7669677734375 70.53511810302734 529.7669677734375 Z" stroke="none"/>
            <path d="M 70.53511810302734 529.5318603515625 C 70.25584411621094 529.5318603515625 70.02799987792969 529.305419921875 70.02799987792969 529.024658203125 C 70.02799987792969 528.7435302734375 70.25584411621094 528.5169677734375 70.53511810302734 528.5169677734375 C 70.81633758544922 528.5169677734375 71.04222106933594 528.7435302734375 71.04222106933594 529.024658203125 C 71.04222106933594 529.305419921875 70.81633758544922 529.5318603515625 70.53511810302734 529.5318603515625 Z" stroke="none" fill="#394553"/>
          </g>
        </g>
      </g>
      <g id="Group_2295" data-name="Group 2295" transform="translate(11.645)">
        <g id="Group_2294" data-name="Group 2294">
          <g id="Path_2121" data-name="Path 2121" transform="translate(-78.972 -528.517)" fill="#394553" stroke-miterlimit="10">
            <path d="M 79.47977447509766 529.7669677734375 C 79.06977844238281 529.7669677734375 78.73622131347656 529.4339599609375 78.73622131347656 529.024658203125 C 78.73622131347656 528.6150512695313 79.06977844238281 528.2818603515625 79.47977447509766 528.2818603515625 C 79.8890380859375 528.2818603515625 80.22200012207031 528.6150512695313 80.22200012207031 529.024658203125 C 80.22200012207031 529.4339599609375 79.8890380859375 529.7669677734375 79.47977447509766 529.7669677734375 Z" stroke="none"/>
            <path d="M 79.47977447509766 529.5318603515625 C 79.19984436035156 529.5318603515625 78.97200012207031 529.305419921875 78.97200012207031 529.024658203125 C 78.97200012207031 528.7435302734375 79.19984436035156 528.5169677734375 79.47977447509766 528.5169677734375 C 79.76033020019531 528.5169677734375 79.98622131347656 528.7435302734375 79.98622131347656 529.024658203125 C 79.98622131347656 529.305419921875 79.76033020019531 529.5318603515625 79.47977447509766 529.5318603515625 Z" stroke="none" fill="#394553"/>
          </g>
        </g>
      </g>
      <g id="Group_2297" data-name="Group 2297" transform="translate(17.469)">
        <g id="Group_2296" data-name="Group 2296">
          <g id="Path_2122" data-name="Path 2122" transform="translate(-87.917 -528.517)" fill="#394553" stroke-miterlimit="10">
            <path d="M 88.42410278320313 529.7669677734375 C 88.01448059082031 529.7669677734375 87.68122863769531 529.4339599609375 87.68122863769531 529.024658203125 C 87.68122863769531 528.6150512695313 88.01448059082031 528.2818603515625 88.42410278320313 528.2818603515625 C 88.83373260498047 528.2818603515625 89.1669921875 528.6150512695313 89.1669921875 529.024658203125 C 89.1669921875 529.4339599609375 88.83373260498047 529.7669677734375 88.42410278320313 529.7669677734375 Z" stroke="none"/>
            <path d="M 88.42410278320313 529.5318603515625 C 88.14484405517578 529.5318603515625 87.9169921875 529.305419921875 87.9169921875 529.024658203125 C 87.9169921875 528.7435302734375 88.14484405517578 528.5169677734375 88.42410278320313 528.5169677734375 C 88.70533752441406 528.5169677734375 88.93122863769531 528.7435302734375 88.93122863769531 529.024658203125 C 88.93122863769531 529.305419921875 88.70533752441406 529.5318603515625 88.42410278320313 529.5318603515625 Z" stroke="none" fill="#394553"/>
          </g>
        </g>
      </g>
    </g>
    <g id="Group_2307" data-name="Group 2307" transform="translate(58.609 519.459)">
      <g id="Group_2300" data-name="Group 2300">
        <g id="Group_2299" data-name="Group 2299">
          <g id="Path_2123" data-name="Path 2123" transform="translate(-61.083 -535.479)" fill="#394553" stroke-miterlimit="10">
            <path d="M 61.59012603759766 536.72900390625 C 61.18049621582031 536.72900390625 60.84723281860352 536.39599609375 60.84723281860352 535.9866943359375 C 60.84723281860352 535.5770263671875 61.18049621582031 535.2437744140625 61.59012603759766 535.2437744140625 C 61.9997444152832 535.2437744140625 62.3329963684082 535.5770263671875 62.3329963684082 535.9866943359375 C 62.3329963684082 536.39599609375 61.9997444152832 536.72900390625 61.59012603759766 536.72900390625 Z" stroke="none"/>
            <path d="M 61.59012603759766 536.4937744140625 C 61.31084442138672 536.4937744140625 61.0829963684082 536.267333984375 61.0829963684082 535.9866943359375 C 61.0829963684082 535.70556640625 61.31084442138672 535.47900390625 61.59012603759766 535.47900390625 C 61.87133407592773 535.47900390625 62.09723281860352 535.70556640625 62.09723281860352 535.9866943359375 C 62.09723281860352 536.267333984375 61.87133407592773 536.4937744140625 61.59012603759766 536.4937744140625 Z" stroke="none" fill="#394553"/>
          </g>
        </g>
      </g>
      <g id="Group_2302" data-name="Group 2302" transform="translate(5.823)">
        <g id="Group_2301" data-name="Group 2301">
          <g id="Path_2124" data-name="Path 2124" transform="translate(-70.028 -535.479)" fill="#394553" stroke-miterlimit="10">
            <path d="M 70.53511810302734 536.72900390625 C 70.12548065185547 536.72900390625 69.79222106933594 536.39599609375 69.79222106933594 535.9866943359375 C 69.79222106933594 535.5770263671875 70.12548065185547 535.2437744140625 70.53511810302734 535.2437744140625 C 70.94474792480469 535.2437744140625 71.27799987792969 535.5770263671875 71.27799987792969 535.9866943359375 C 71.27799987792969 536.39599609375 70.94474792480469 536.72900390625 70.53511810302734 536.72900390625 Z" stroke="none"/>
            <path d="M 70.53511810302734 536.4937744140625 C 70.25584411621094 536.4937744140625 70.02799987792969 536.267333984375 70.02799987792969 535.9866943359375 C 70.02799987792969 535.70556640625 70.25584411621094 535.47900390625 70.53511810302734 535.47900390625 C 70.81633758544922 535.47900390625 71.04222106933594 535.70556640625 71.04222106933594 535.9866943359375 C 71.04222106933594 536.267333984375 70.81633758544922 536.4937744140625 70.53511810302734 536.4937744140625 Z" stroke="none" fill="#394553"/>
          </g>
        </g>
      </g>
      <g id="Group_2304" data-name="Group 2304" transform="translate(11.645)">
        <g id="Group_2303" data-name="Group 2303">
          <g id="Path_2125" data-name="Path 2125" transform="translate(-78.972 -535.479)" fill="#394553" stroke-miterlimit="10">
            <path d="M 79.47977447509766 536.72900390625 C 79.06977844238281 536.72900390625 78.73622131347656 536.39599609375 78.73622131347656 535.9866943359375 C 78.73622131347656 535.5770263671875 79.06977844238281 535.2437744140625 79.47977447509766 535.2437744140625 C 79.8890380859375 535.2437744140625 80.22200012207031 535.5770263671875 80.22200012207031 535.9866943359375 C 80.22200012207031 536.39599609375 79.8890380859375 536.72900390625 79.47977447509766 536.72900390625 Z" stroke="none"/>
            <path d="M 79.47977447509766 536.4937744140625 C 79.19984436035156 536.4937744140625 78.97200012207031 536.267333984375 78.97200012207031 535.9866943359375 C 78.97200012207031 535.70556640625 79.19984436035156 535.47900390625 79.47977447509766 535.47900390625 C 79.76033020019531 535.47900390625 79.98622131347656 535.70556640625 79.98622131347656 535.9866943359375 C 79.98622131347656 536.267333984375 79.76033020019531 536.4937744140625 79.47977447509766 536.4937744140625 Z" stroke="none" fill="#394553"/>
          </g>
        </g>
      </g>
      <g id="Group_2306" data-name="Group 2306" transform="translate(17.469)">
        <g id="Group_2305" data-name="Group 2305">
          <g id="Path_2126" data-name="Path 2126" transform="translate(-87.917 -535.479)" fill="#394553" stroke-miterlimit="10">
            <path d="M 88.42410278320313 536.72900390625 C 88.01448059082031 536.72900390625 87.68122863769531 536.39599609375 87.68122863769531 535.9866943359375 C 87.68122863769531 535.5770263671875 88.01448059082031 535.2437744140625 88.42410278320313 535.2437744140625 C 88.83373260498047 535.2437744140625 89.1669921875 535.5770263671875 89.1669921875 535.9866943359375 C 89.1669921875 536.39599609375 88.83373260498047 536.72900390625 88.42410278320313 536.72900390625 Z" stroke="none"/>
            <path d="M 88.42410278320313 536.4937744140625 C 88.14484405517578 536.4937744140625 87.9169921875 536.267333984375 87.9169921875 535.9866943359375 C 87.9169921875 535.70556640625 88.14484405517578 535.47900390625 88.42410278320313 535.47900390625 C 88.70533752441406 535.47900390625 88.93122863769531 535.70556640625 88.93122863769531 535.9866943359375 C 88.93122863769531 536.267333984375 88.70533752441406 536.4937744140625 88.42410278320313 536.4937744140625 Z" stroke="none" fill="#394553"/>
          </g>
        </g>
      </g>
    </g>
    <g id="Group_2316" data-name="Group 2316" transform="translate(58.609 523.99)">
      <g id="Group_2309" data-name="Group 2309">
        <g id="Group_2308" data-name="Group 2308">
          <g id="Path_2127" data-name="Path 2127" transform="translate(-61.083 -542.44)" fill="#394553" stroke-miterlimit="10">
            <path d="M 61.59012603759766 543.6900024414063 C 61.18049621582031 543.6900024414063 60.84723281860352 543.3569946289063 60.84723281860352 542.9476928710938 C 60.84723281860352 542.5380859375 61.18049621582031 542.2048950195313 61.59012603759766 542.2048950195313 C 61.9997444152832 542.2048950195313 62.3329963684082 542.5380859375 62.3329963684082 542.9476928710938 C 62.3329963684082 543.3569946289063 61.9997444152832 543.6900024414063 61.59012603759766 543.6900024414063 Z" stroke="none"/>
            <path d="M 61.59012603759766 543.4548950195313 C 61.31084442138672 543.4548950195313 61.0829963684082 543.2283935546875 61.0829963684082 542.9476928710938 C 61.0829963684082 542.6665649414063 61.31084442138672 542.4400024414063 61.59012603759766 542.4400024414063 C 61.87133407592773 542.4400024414063 62.09723281860352 542.6665649414063 62.09723281860352 542.9476928710938 C 62.09723281860352 543.2283935546875 61.87133407592773 543.4548950195313 61.59012603759766 543.4548950195313 Z" stroke="none" fill="#394553"/>
          </g>
        </g>
      </g>
      <g id="Group_2311" data-name="Group 2311" transform="translate(5.823)">
        <g id="Group_2310" data-name="Group 2310">
          <g id="Path_2128" data-name="Path 2128" transform="translate(-70.028 -542.44)" fill="#394553" stroke-miterlimit="10">
            <path d="M 70.53511810302734 543.6900024414063 C 70.12548065185547 543.6900024414063 69.79222106933594 543.3569946289063 69.79222106933594 542.9476928710938 C 69.79222106933594 542.5380859375 70.12548065185547 542.2048950195313 70.53511810302734 542.2048950195313 C 70.94474792480469 542.2048950195313 71.27799987792969 542.5380859375 71.27799987792969 542.9476928710938 C 71.27799987792969 543.3569946289063 70.94474792480469 543.6900024414063 70.53511810302734 543.6900024414063 Z" stroke="none"/>
            <path d="M 70.53511810302734 543.4548950195313 C 70.25584411621094 543.4548950195313 70.02799987792969 543.2283935546875 70.02799987792969 542.9476928710938 C 70.02799987792969 542.6665649414063 70.25584411621094 542.4400024414063 70.53511810302734 542.4400024414063 C 70.81633758544922 542.4400024414063 71.04222106933594 542.6665649414063 71.04222106933594 542.9476928710938 C 71.04222106933594 543.2283935546875 70.81633758544922 543.4548950195313 70.53511810302734 543.4548950195313 Z" stroke="none" fill="#394553"/>
          </g>
        </g>
      </g>
      <g id="Group_2313" data-name="Group 2313" transform="translate(11.645)">
        <g id="Group_2312" data-name="Group 2312">
          <g id="Path_2129" data-name="Path 2129" transform="translate(-78.972 -542.44)" fill="#394553" stroke-miterlimit="10">
            <path d="M 79.47977447509766 543.6900024414063 C 79.06977844238281 543.6900024414063 78.73622131347656 543.3569946289063 78.73622131347656 542.9476928710938 C 78.73622131347656 542.5380859375 79.06977844238281 542.2048950195313 79.47977447509766 542.2048950195313 C 79.8890380859375 542.2048950195313 80.22200012207031 542.5380859375 80.22200012207031 542.9476928710938 C 80.22200012207031 543.3569946289063 79.8890380859375 543.6900024414063 79.47977447509766 543.6900024414063 Z" stroke="none"/>
            <path d="M 79.47977447509766 543.4548950195313 C 79.19984436035156 543.4548950195313 78.97200012207031 543.2283935546875 78.97200012207031 542.9476928710938 C 78.97200012207031 542.6665649414063 79.19984436035156 542.4400024414063 79.47977447509766 542.4400024414063 C 79.76033020019531 542.4400024414063 79.98622131347656 542.6665649414063 79.98622131347656 542.9476928710938 C 79.98622131347656 543.2283935546875 79.76033020019531 543.4548950195313 79.47977447509766 543.4548950195313 Z" stroke="none" fill="#394553"/>
          </g>
        </g>
      </g>
      <g id="Group_2315" data-name="Group 2315" transform="translate(17.469)">
        <g id="Group_2314" data-name="Group 2314">
          <g id="Path_2130" data-name="Path 2130" transform="translate(-87.917 -542.44)" fill="#394553" stroke-miterlimit="10">
            <path d="M 88.42410278320313 543.6900024414063 C 88.01448059082031 543.6900024414063 87.68122863769531 543.3569946289063 87.68122863769531 542.9476928710938 C 87.68122863769531 542.5380859375 88.01448059082031 542.2048950195313 88.42410278320313 542.2048950195313 C 88.83373260498047 542.2048950195313 89.1669921875 542.5380859375 89.1669921875 542.9476928710938 C 89.1669921875 543.3569946289063 88.83373260498047 543.6900024414063 88.42410278320313 543.6900024414063 Z" stroke="none"/>
            <path d="M 88.42410278320313 543.4548950195313 C 88.14484405517578 543.4548950195313 87.9169921875 543.2283935546875 87.9169921875 542.9476928710938 C 87.9169921875 542.6665649414063 88.14484405517578 542.4400024414063 88.42410278320313 542.4400024414063 C 88.70533752441406 542.4400024414063 88.93122863769531 542.6665649414063 88.93122863769531 542.9476928710938 C 88.93122863769531 543.2283935546875 88.70533752441406 543.4548950195313 88.42410278320313 543.4548950195313 Z" stroke="none" fill="#394553"/>
          </g>
        </g>
      </g>
    </g>
  </g>
</svg>
